<svg width="14" height="88" viewBox="0 0 14 88" fill="none" xmlns="http://www.w3.org/2000/svg">
    <path d="M6.85153 65.9906C7.7355 66.2886 8.21698 65.4177 8.51175 62.973C8.65928 61.818 8.95508 59.8532 9.18576 58.6082C9.76252 55.533 9.57732 54.6637 8.56242 55.4906C7.41444 56.4377 5.90083 65.6628 6.85153 65.9906Z" fill="#075b5d"/>
    <path d="M8.45702 52.8666C8.2599 54.2165 10.1106 54.5425 10.9642 48.4377C11.5223 44.4329 11.4695 43.0983 10.7195 43.0999C9.30281 43.103 8.98278 49.3267 8.45702 52.8666Z" fill="#075b5d"/>
    <path d="M9.06568 80.3658C9.1327 80.5306 8.1811 79.7829 6.94546 78.7059C4.27383 76.3874 3.43928 75.8194 3.03992 76.1201C2.55736 76.481 2.24291 77.5163 2.46057 77.9807C2.54425 78.1455 3.34592 78.9235 4.24761 79.7163C6.18453 81.3916 9.09052 84.1894 10.2266 85.4615C11.797 87.2276 12.181 87.5418 12.464 87.3763C13.1632 86.9849 13.2124 86.6099 13.1508 81.1819C13.1086 77.0584 13.1556 75.6338 13.3692 74.2088C13.8621 70.8788 13.8948 70.579 13.8106 70.1743C13.2551 67.5963 11.6513 73.5377 11.5949 78.3812C11.5804 79.3559 11.5151 80.0908 11.4483 80.0309C11.2145 79.8065 9.57052 74.8317 8.76436 71.9545C7.85754 68.7625 7.7402 68.4477 7.27353 68.4487C5.40687 68.4527 6.18453 73.5943 9.06568 80.3658Z" fill="#075b5d"/>
    <path d="M0.595858 0.941352C0.196756 1.36206 0.163967 1.61705 0.415633 2.39624C0.818261 3.62496 3.91069 7.87674 4.39402 7.8757C6.04402 7.87217 4.58483 3.57192 2.24717 1.55261C1.17849 0.610221 0.978357 0.550668 0.595858 0.941352Z" fill="#075b5d"/>
    <path d="M6.1239 14.0952C8.25165 19.2789 8.06771 18.9944 8.79986 18.438C9.86479 17.626 8.80456 12.8451 7.16745 11.0792C5.9479 9.73223 5.20242 11.8479 6.1239 14.0952Z" fill="#075b5d"/>
    <path d="M10.0429 38.5583C10.1642 40.7623 10.2146 40.8671 10.8473 40.5359C12.1459 39.8883 12.565 33.3047 11.3794 32.2426C10.1604 31.1506 9.73125 33.1308 10.0429 38.5583Z" fill="#075b5d"/>
    <path d="M9.11198 23.985C9.14548 24.0599 9.4483 25.379 9.7682 26.8928C10.4417 30.1003 10.6256 30.3698 11.323 29.1387C12.1034 27.7575 10.8054 20.9075 9.75541 20.9097C9.15541 20.911 8.69339 23.0862 9.11198 23.985Z" fill="#075b5d"/>
</svg>
