<svg width="110" height="101" viewBox="0 0 110 101" fill="none" xmlns="http://www.w3.org/2000/svg">
<g clip-path="url(#clip0_4825_11784)">
<path d="M52.3194 72.1794C53.1648 72.574 53.7402 71.7621 54.3052 69.3653C54.5804 68.234 55.0931 66.3143 55.4609 65.1027C56.3764 62.1108 56.2891 61.2263 55.1885 61.935C53.9422 62.7485 51.4111 71.7478 52.3194 72.1794Z" fill="#2D9185"/>
<path d="M55.3756 59.3157C55.0295 60.6353 56.8324 61.1653 58.3602 55.1935C59.3606 51.2757 59.4567 49.9435 58.7111 49.8616C57.303 49.7069 56.2921 55.8563 55.3756 59.3157Z" fill="#2D9185"/>
<path d="M52.9196 86.7119C52.9678 86.8832 52.1054 86.0342 50.9973 84.8264C48.6003 82.2249 47.8342 81.5675 47.4038 81.8219C46.8841 82.1269 46.4564 83.1208 46.621 83.6065C46.6858 83.7795 47.3959 84.642 48.2037 85.5302C49.9421 87.4107 52.5186 90.5146 53.506 91.9053C54.8701 93.8351 55.2168 94.1901 55.5164 94.0571C56.2548 93.746 56.3454 93.3788 56.8884 87.9777C57.3055 83.8751 57.5108 82.4646 57.8817 81.0723C58.7422 77.8178 58.808 77.5235 58.7694 77.1119C58.5043 74.4882 56.2491 80.2141 55.654 85.0212C55.531 85.9882 55.3844 86.7113 55.3247 86.6444C55.1173 86.3953 54.0373 81.2685 53.5564 78.3193C53.0105 75.0463 52.9289 74.7204 52.4651 74.6694C50.6095 74.4656 50.8101 79.6618 52.9196 86.7119Z" fill="#2D9185"/>
<path d="M53.3433 6.83808C52.8999 7.21175 52.8389 7.4615 53.0023 8.26387C53.2656 9.52977 55.8656 14.0993 56.346 14.1521C57.9862 14.3323 57.0147 9.89632 54.9163 7.62935C53.9592 6.57386 53.7669 6.4924 53.3433 6.83808Z" fill="#2D9185"/>
<path d="M57.3728 20.5255C58.9103 25.9138 58.7592 25.6106 59.5487 25.1392C60.6974 24.4507 60.1759 19.5815 58.7456 17.6443C57.6835 16.17 56.7072 18.1896 57.3728 20.5255Z" fill="#2D9185"/>
<path d="M58.5444 45.2729C58.4197 47.4767 58.4581 47.5865 59.1237 47.3278C60.4863 46.8288 61.6356 40.3327 60.5756 39.1452C59.4857 37.9243 58.8389 39.8445 58.5444 45.2729Z" fill="#2D9185"/>
<path d="M59.2415 30.6867C59.2664 30.7649 59.4205 32.1094 59.57 33.6494C59.8823 36.9119 60.035 37.2002 60.8651 36.0544C61.7944 34.7687 61.267 27.8167 60.2232 27.7021C59.6268 27.6366 58.9255 29.7469 59.2415 30.6867Z" fill="#2D9185"/>
</g>
<defs>
<clipPath id="clip0_4825_11784">
<rect width="89.9689" height="100" fill="white" transform="translate(0.387207 89.6998) rotate(-83.7316)"/>
</clipPath>
</defs>
</svg>
