<svg width="46" height="15" viewBox="0 0 46 15" fill="none" xmlns="http://www.w3.org/2000/svg">
<path d="M23.572 8.97205C23.9211 8.10698 23.0798 7.5755 20.6564 7.13856C19.512 6.92388 17.5678 6.51392 16.3383 6.21098C13.3021 5.45575 12.4234 5.58989 13.1897 6.65132C14.0682 7.85261 23.1892 9.902 23.572 8.97205Z" fill="#A10E13"/>
<path d="M10.564 6.60352C11.9002 6.87908 12.3336 5.05055 6.28906 3.84213C2.32364 3.05126 0.98825 3.02614 0.946083 3.77496C0.866433 5.18938 7.06085 5.87207 10.564 6.60352Z" fill="#A10E13"/>
<path d="M38.052 7.60061C38.2205 7.54332 37.4185 8.44967 36.2712 9.62035C33.8008 12.1521 33.185 12.9521 33.462 13.3683C33.7941 13.8711 34.8093 14.2455 35.2856 14.0553C35.455 13.9814 36.2784 13.2265 37.1225 12.3726C38.908 10.5367 41.8706 7.79895 43.2069 6.73907C45.0615 5.27436 45.3976 4.90935 45.2489 4.61719C44.899 3.89637 44.5275 3.82538 39.1052 3.57011C34.9863 3.37155 33.5668 3.24154 32.1567 2.94513C28.8611 2.25875 28.5637 2.20862 28.1548 2.26906C25.5489 2.67318 31.3865 4.62097 36.2184 4.95984C37.1906 5.03128 37.9205 5.13932 37.8568 5.20251C37.6191 5.42283 32.5569 6.77368 29.6375 7.41055C26.398 8.12955 26.0769 8.22832 26.0507 8.69425C25.9457 10.558 31.1239 10.0817 38.052 7.60061Z" fill="#A10E13"/>
</svg>
